Coordinates
version=1
nRows=17
nColumns=24
inDegrees=yes

Units are S.I. units (second, meters, Newtons, ...)
Angles are in degrees.

endheader
time	pelvis_tilt	pelvis_list	pelvis_rotation	pelvis_tx	pelvis_ty	pelvis_tz	hip_flexion_r	hip_adduction_r	hip_rotation_r	knee_angle_r	ankle_angle_r	subtalar_angle_r	mtp_angle_r	hip_flexion_l	hip_adduction_l	hip_rotation_l	knee_angle_l	ankle_angle_l	subtalar_angle_l	mtp_angle_l	lumbar_extension	lumbar_bending	lumbar_rotation
      4.05000000	    -21.55161627	     -1.11907727	      8.44947724	     -1.84820996	     -0.02378074	     -0.28175554	     45.60428833	     -0.26644599	      4.44434218	     -5.50066043	     23.67026985	     -4.18752414	   -120.28994122	      0.92735974	      2.39304420	     12.25352189	    -11.20680650	     16.20675326	     24.90001844	    -61.46501414	     12.18116374	     -2.15087800	     -8.40449007
      4.05500000	    -21.66597688	     -1.22736166	      8.63134697	     -1.83964670	     -0.02585018	     -0.28158082	     46.08628934	     -0.30391839	      4.06959707	     -6.20309533	     23.87765634	     -4.00352043	   -120.27517843	      0.86675838	      2.22362505	     12.30161356	    -11.92365545	     16.12665556	     25.30763344	    -61.04497507	     12.36809016	     -2.10393660	     -8.61468749
      4.06000000	    -21.75545178	     -1.34062658	      8.79556051	     -1.83091257	     -0.02790846	     -0.28139987	     46.52968209	     -0.30961482	      3.79979901	     -7.01099192	     23.96806219	     -3.95175559	   -120.31066837	      0.78716442	      2.04087565	     12.31767841	    -12.65943524	     15.96152278	     25.72401688	    -60.59018606	     12.54752356	     -2.03088475	     -8.83234589
      4.06500000	    -21.85295925	     -1.47070080	      8.93034874	     -1.82201188	     -0.02999060	     -0.28118261	     46.99148533	     -0.27044555	      3.56104279	     -7.95357678	     23.91619811	     -3.94070563	   -120.43505717	      0.74470201	      1.82997709	     12.20474422	    -13.44643410	     15.72928363	     26.25951617	    -60.00593887	     12.75496905	     -1.93482086	     -9.05554180
      4.07000000	    -21.87905034	     -1.59537361	      8.99117311	     -1.81296338	     -0.03200834	     -0.28090508	     47.35142318	     -0.15610318	      3.50372681	     -8.90816840	     23.69087018	     -4.24980365	   -121.67083552	      0.58418627	      1.61461037	     12.13720150	    -14.13983764	     14.54969011	     26.80681012	    -54.61666871	     12.89330994	     -1.80555944	     -9.16517272
      4.07500000	    -21.92056548	     -1.77333624	      9.11792310	     -1.80377513	     -0.03398485	     -0.28068948	     47.75088280	     -0.03630932	      3.24071715	    -10.05469564	     23.24906973	     -4.41386665	   -121.79808926	      0.54286838	      1.33468909	     11.97538005	    -15.01927035	     14.23581832	     27.35739730	    -54.51680951	     13.07115846	     -1.63959480	     -9.40897155
      4.08000000	    -21.97388498	     -1.96280462	      9.15767241	     -1.79444452	     -0.03598458	     -0.28031266	     48.19452101	      0.17848036	      2.99558065	    -11.32166172	     22.54714066	     -4.70118062	   -122.05647410	      0.56809826	      1.01633010	     11.51210172	    -15.98896661	     13.81581725	     28.09846433	    -54.25234684	     13.27495867	     -1.44629381	     -9.54875757
      4.08500000	    -22.01510903	     -2.19818812	      9.17084055	     -1.78505383	     -0.03789715	     -0.27990443	     48.63056447	      0.46303318	      2.74135605	    -12.64426695	     21.50307143	     -5.13901040	   -122.39350727	      0.62847681	      0.63698818	     11.03330332	    -17.01185812	     13.27996994	     28.84878705	    -53.88730992	     13.47151188	     -1.19280271	     -9.68228688
      4.09000000	    -22.12420095	     -2.35122375	      9.11417945	     -1.77572001	     -0.03981568	     -0.27943704	     49.14048965	      0.73287773	      2.67541182	    -13.87940047	     20.32561183	     -6.19021278	   -126.15424557	      0.71235635	      0.36487684	     10.58058499	    -17.81948540	     10.79914706	     29.69012253	    -44.21412012	     13.71305228	     -1.00859374	     -9.72210333
      4.09500000	    -22.08783415	     -2.68291068	      9.06193531	     -1.76614502	     -0.04149104	     -0.27892556	     49.54398671	      1.17828294	      2.28076805	    -15.38523307	     18.85207477	     -6.81014067	   -126.07485951	      0.80285575	     -0.17434130	      9.87601342	    -18.96122622	     10.00455326	     30.58771309	    -43.92643327	     13.85080822	     -0.62091032	     -9.81341668
      4.10000000	    -22.03276564	     -2.93419571	      8.92798535	     -1.75666097	     -0.04303765	     -0.27832868	     49.96386121	      1.64457585	      2.12024811	    -17.07170322	     17.20496416	     -7.28248769	   -123.89363159	      0.77111981	     -0.63883863	      9.07944207	    -19.57968325	      5.97035905	     31.61941273	    -28.53292271	     13.92705823	     -0.28175004	     -9.79805236
      4.10500000	    -22.16312584	     -3.23547690	      8.79814565	     -1.74727945	     -0.04467171	     -0.27770386	     50.57065286	      2.12486228	      1.99741794	    -18.64677352	     15.58528897	     -8.16509564	   -123.98420392	      1.17283859	     -1.12811903	      8.41442092	    -20.86259680	      4.79143147	     32.44102311	    -28.18796335	     14.19966860	      0.07190817	     -9.76198219
      4.11000000	    -22.14686802	     -3.50999367	      8.62285699	     -1.73777289	     -0.04600164	     -0.27700174	     51.01497352	      2.66490231	      1.93231265	    -20.34640348	     14.16831170	     -8.83138696	   -122.19198806	      1.24563379	     -1.66206685	      7.45376677	    -21.28195001	     -0.11219699	     33.28218534	    -11.62958454	     14.31507823	      0.43262865	     -9.69038877
      4.11500000	    -22.09567669	     -3.82508450	      8.37496998	     -1.72828711	     -0.04720852	     -0.27623443	     51.39307547	      3.30907522	      1.93321196	    -22.00563857	     12.98804502	     -9.49088797	   -120.50106203	      1.44310015	     -2.25510733	      6.48596599	    -22.19397343	     -3.23588964	     34.00812205	     -4.72401955	     14.38547085	      0.86505701	     -9.52503870
      4.12000000	    -22.15146409	     -4.08272141	      8.19605946	     -1.71901743	     -0.04840939	     -0.27549435	     51.87337429	      3.85866662	      1.98559401	    -23.71422004	     12.11834829	    -10.04753092	   -118.12110276	      1.84502202	     -2.75510339	      5.79254870	    -23.19382359	     -6.39860059	     34.60511708	      1.14377871	     14.53496253	      1.19361484	     -9.42801101
      4.12500000	    -22.14428162	     -4.39481787	      7.94733008	     -1.70963812	     -0.04946499	     -0.27479745	     52.22635715	      4.50636802	      1.99124893	    -25.36736484	     11.66889027	    -10.39372961	   -115.62766562	      2.22987639	     -3.32423424	      5.02052595	    -24.27537054	     -9.55956328	     34.99391923	      5.75113675	     14.63791481	      1.62149665	     -9.26265813
      4.13000000	    -22.13280487	     -4.69004887	      7.69468253	     -1.70037046	     -0.05040697	     -0.27407958	     52.51039175	      5.16180821	      2.03728046	    -26.94346358	     11.54099643	    -10.67981599	   -113.17656744	      2.68095622	     -3.85919292	      4.41212715	    -25.46852670	    -12.60556784	     35.21143006	      8.72140417	     14.71557643	      2.02687539	     -9.06387817
